<svg width="45" height="45" viewBox="0 0 45 45" fill="none" xmlns="http://www.w3.org/2000/svg">
<g id="Group 1686551414">
<ellipse id="Ellipse 810" cx="22.1398" cy="22.0725" rx="22.0099" ry="22.01" fill="#E6F5E0"/>
<g id="Group 1686551413">
<rect id="Rectangle 34624357" x="12.4551" y="4.46436" width="20.1234" height="35.216" fill="black"/>
<rect id="Rectangle 34624358" x="14.2158" y="5.34497" width="16.7275" height="30.814" fill="white"/>
<ellipse id="Ellipse 811" cx="23.0196" cy="37.9197" rx="1.76079" ry="1.7608" fill="white"/>
<path id="Arrow 1" d="M21.4325 32.464C21.8231 32.8545 22.4562 32.8545 22.8468 32.464L29.2107 26.1001C29.6012 25.7095 29.6012 25.0764 29.2107 24.6858C28.8202 24.2953 28.187 24.2953 27.7965 24.6858L22.1396 30.3427L16.4828 24.6858C16.0923 24.2953 15.4591 24.2953 15.0686 24.6858C14.6781 25.0764 14.6781 25.7095 15.0686 26.1001L21.4325 32.464ZM21.1396 7.10571V31.7569H23.1396V7.10571H21.1396Z" fill="black"/>
</g>
</g>
</svg>
