<svg width="74" height="68" viewBox="0 0 74 68" fill="none" xmlns="http://www.w3.org/2000/svg">
<path d="M44.7529 5.6626H29.2232C23.7421 5.6626 22.5241 8.21073 21.8237 11.3534L19.3268 22.4517H54.6493L52.1523 11.3534C51.452 8.21073 50.234 5.6626 44.7529 5.6626Z" stroke="#216900" stroke-width="5.93165" stroke-linecap="round" stroke-linejoin="round"/>
<path d="M59.0341 40.543C59.2777 42.9496 57.2071 45.0164 54.5579 45.0164H50.4167C48.0415 45.0164 47.7066 44.0821 47.2803 42.893L46.8235 41.6754C46.2145 40.005 45.8187 38.8725 42.6214 38.8725H31.3242C28.1574 38.8725 27.6702 40.1465 27.1221 41.6754L26.6653 42.893C26.239 44.0538 25.9041 45.0164 23.5289 45.0164H19.3877C16.7385 45.0164 14.6679 42.9496 14.9115 40.543L16.1599 28.029C16.4644 24.943 17.1039 22.4231 22.8895 22.4231H51.0561C56.8417 22.4231 57.4812 24.943 57.7857 28.029L59.0341 40.543Z" stroke="#216900" stroke-width="5.93165" stroke-linecap="round" stroke-linejoin="round"/>
<path d="M19.3269 16.2795H17.104" stroke="#216900" stroke-width="5.93165" stroke-linecap="round" stroke-linejoin="round"/>
<path d="M56.872 16.2795H54.6492" stroke="#216900" stroke-width="5.93165" stroke-linecap="round" stroke-linejoin="round"/>
<path d="M23.7419 30.6624H30.3497" stroke="#216900" stroke-width="5.93165" stroke-linecap="round" stroke-linejoin="round"/>
<path d="M43.6262 30.6624H50.234" stroke="#216900" stroke-width="5.93165" stroke-linecap="round" stroke-linejoin="round"/>
<path d="M36.9879 48.1309V50.9621" stroke="#216900" stroke-width="5.93165" stroke-linecap="round" stroke-linejoin="round"/>
<path d="M36.9879 59.4558V62.287" stroke="#216900" stroke-width="5.93165" stroke-linecap="round" stroke-linejoin="round"/>
<path d="M9.58252 50.9622L6.53748 62.2871" stroke="#216900" stroke-width="5.93165" stroke-linecap="round" stroke-linejoin="round"/>
<path d="M64.3933 50.9622L67.4384 62.2871" stroke="#216900" stroke-width="5.93165" stroke-linecap="round" stroke-linejoin="round"/>
</svg>
