<svg width="63" height="79" viewBox="0 0 63 79" fill="none" xmlns="http://www.w3.org/2000/svg">
<path d="M55.4732 58.7438C57.9426 60.4971 59.2426 62.4859 59.2426 64.5104C59.2426 66.5349 57.9426 68.5237 55.4732 70.2769C53.0039 72.0302 49.4522 73.4861 45.1752 74.4984C40.8982 75.5106 36.0465 76.0435 31.1078 76.0435C26.1691 76.0435 21.3174 75.5106 17.0404 74.4984C12.7634 73.4861 9.21171 72.0302 6.74237 70.277C4.27303 68.5237 2.97302 66.5349 2.97302 64.5104C2.97302 62.4859 4.27302 60.4971 6.74237 58.7438" stroke="#216900" stroke-width="5.71725" stroke-linecap="round"/>
<path d="M55.9316 31.8328C55.9316 52.3958 35.2907 65.8245 31.6515 68.0323C31.3099 68.2395 30.9036 68.2395 30.562 68.0323C26.9229 65.8245 6.28198 52.3958 6.28198 31.8328C6.28198 14.5331 18.3104 3 31.1068 3C44.3467 3 55.9316 14.5331 55.9316 31.8328Z" stroke="#216900" stroke-width="5.71725"/>
<path d="M41.4892 31.833C41.4892 39.1635 36.4548 44.3519 31.1079 44.3519C25.7611 44.3519 20.7267 39.1635 20.7267 31.833C20.7267 24.5026 25.7611 19.3142 31.1079 19.3142C36.4548 19.3142 41.4892 24.5026 41.4892 31.833Z" stroke="#216900" stroke-width="5.71725"/>
</svg>
