<svg width="62" height="70" viewBox="0 0 62 70" fill="none" xmlns="http://www.w3.org/2000/svg">
<path d="M38.0833 12.8456H23.25M60.3333 17.9088V51.664C60.3333 65.166 56.625 68.5416 41.7917 68.5416H19.5417C4.70833 68.5416 1 65.166 1 51.664V17.9088C1 4.40677 4.70833 1.03125 19.5417 1.03125H41.7917C56.625 1.03125 60.3333 4.40677 60.3333 17.9088Z" stroke="#585858" stroke-width="2" stroke-linecap="round" stroke-linejoin="round"/>
<path d="M30.6669 58.7527C32.1913 58.7527 33.6533 58.2014 34.7313 57.2202C35.8092 56.239 36.4148 54.9082 36.4148 53.5206C36.4148 52.133 35.8092 50.8022 34.7313 49.821C33.6533 48.8398 32.1913 48.2886 30.6669 48.2886C29.1424 48.2886 27.6804 48.8398 26.6025 49.821C25.5245 50.8022 24.9189 52.133 24.9189 53.5206C24.9189 54.9082 25.5245 56.239 26.6025 57.2202C27.6804 58.2014 29.1424 58.7527 30.6669 58.7527Z" stroke="#585858" stroke-width="2" stroke-linecap="round" stroke-linejoin="round"/>
</svg>
