<svg width="61" height="61" viewBox="0 0 61 61" fill="none" xmlns="http://www.w3.org/2000/svg">
<mask id="mask0_1_660" style="mask-type:alpha" maskUnits="userSpaceOnUse" x="0" y="0" width="61" height="61">
<rect x="0.5" y="0.286377" width="60" height="60" fill="#D9D9D9"/>
</mask>
<g mask="url(#mask0_1_660)">
<path d="M30.9856 51.5824H33.3563V47.9473C35.5163 47.8419 37.6631 47.0912 39.7967 45.6951C41.9303 44.2991 42.9971 42.0996 42.9971 39.0967C42.9971 36.8841 42.3123 35.0402 40.9425 33.5651C39.5728 32.09 36.9914 30.6676 33.1983 29.2979C29.6159 28.0335 27.3769 26.9535 26.4813 26.0579C25.5857 25.1623 25.1379 23.8716 25.1379 22.1858C25.1379 20.5 25.8096 19.0776 27.153 17.9186C28.4964 16.7596 30.2481 16.1801 32.408 16.1801C33.9885 16.1801 35.3319 16.5357 36.4382 17.2469C37.5445 17.9581 38.4665 18.8668 39.204 19.9732L41.2586 19.1829C40.4684 17.7605 39.3752 16.5883 37.9792 15.6664C36.5831 14.7445 35.0948 14.2308 33.5144 14.1255V10.4904H31.1437V14.1255C28.3515 14.5469 26.2574 15.5347 24.8614 17.0888C23.4653 18.6429 22.7672 20.3419 22.7672 22.1858C22.7672 24.3984 23.4784 26.1633 24.9009 27.4803C26.3233 28.7974 28.773 30.0881 32.25 31.3525C35.6743 32.6168 37.9528 33.7627 39.0855 34.79C40.2182 35.8173 40.7845 37.2529 40.7845 39.0967C40.7845 41.4674 39.9152 43.1664 38.1767 44.1937C36.4382 45.221 34.6207 45.7347 32.7241 45.7347C30.8803 45.7347 29.2076 45.2078 27.7062 44.1542C26.2047 43.1006 24.9799 41.6255 24.0316 39.7289L21.977 40.6772C22.9253 42.7318 24.1501 44.3122 25.6516 45.4186C27.153 46.5249 28.931 47.3151 30.9856 47.7893V51.5824ZM32.25 58.5364C28.4569 58.5364 24.8877 57.812 21.5424 56.3632C18.1971 54.9145 15.2864 52.9521 12.8103 50.476C10.3343 48 8.37189 45.0893 6.92313 41.744C5.47438 38.3987 4.75 34.8295 4.75 31.0364C4.75 27.2433 5.47438 23.6741 6.92313 20.3288C8.37189 16.9835 10.3343 14.0728 12.8103 11.5967C15.2864 9.12067 18.1971 7.15826 21.5424 5.70951C24.8877 4.26075 28.4569 3.53638 32.25 3.53638C36.0431 3.53638 39.6123 4.26075 42.9576 5.70951C46.3029 7.15826 49.2136 9.12067 51.6897 11.5967C54.1657 14.0728 56.1281 16.9835 57.5769 20.3288C59.0256 23.6741 59.75 27.2433 59.75 31.0364C59.75 34.8295 59.0256 38.3987 57.5769 41.744C56.1281 45.0893 54.1657 48 51.6897 50.476C49.2136 52.9521 46.3029 54.9145 42.9576 56.3632C39.6123 57.812 36.0431 58.5364 32.25 58.5364ZM32.25 56.3237C39.3094 56.3237 45.2888 53.874 50.1882 48.9746C55.0876 44.0752 57.5374 38.0958 57.5374 31.0364C57.5374 23.977 55.0876 17.9976 50.1882 13.0982C45.2888 8.19873 39.3094 5.74902 32.25 5.74902C25.1906 5.74902 19.2112 8.19873 14.3118 13.0982C9.41236 17.9976 6.96264 23.977 6.96264 31.0364C6.96264 38.0958 9.41236 44.0752 14.3118 48.9746C19.2112 53.874 25.1906 56.3237 32.25 56.3237Z" fill="#1C1B1F"/>
</g>
</svg>
