<svg width="66" height="63" viewBox="0 0 66 63" fill="none" xmlns="http://www.w3.org/2000/svg">
<path d="M49.5 19.2025C49.335 19.1765 49.1425 19.1765 48.9775 19.2025C45.1825 19.0725 42.1575 16.1345 42.1575 12.4945C42.1575 8.7765 45.32 5.7865 49.2525 5.7865C53.185 5.7865 56.3475 8.8025 56.3475 12.4945C56.32 16.1345 53.295 19.0725 49.5 19.2025Z" stroke="#585858" stroke-width="2.4" stroke-linecap="round" stroke-linejoin="round"/>
<path d="M46.6675 38.1303C50.435 38.7283 54.5875 38.1043 57.5025 36.2583C61.38 33.8143 61.38 29.8103 57.5025 27.3663C54.56 25.5203 50.3525 24.8963 46.585 25.5203" stroke="#585858" stroke-width="2.4" stroke-linecap="round" stroke-linejoin="round"/>
<path d="M16.4174 19.2025C16.5824 19.1765 16.7749 19.1765 16.9399 19.2025C20.7349 19.0725 23.7599 16.1345 23.7599 12.4945C23.7599 8.7765 20.5974 5.7865 16.6649 5.7865C12.7324 5.7865 9.56989 8.8025 9.56989 12.4945C9.59739 16.1345 12.6224 19.0725 16.4174 19.2025Z" stroke="#585858" stroke-width="2.4" stroke-linecap="round" stroke-linejoin="round"/>
<path d="M19.25 38.1303C15.4825 38.7283 11.33 38.1043 8.41496 36.2583C4.53746 33.8143 4.53746 29.8103 8.41496 27.3663C11.3575 25.5203 15.565 24.8963 19.3325 25.5203" stroke="#585858" stroke-width="2.4" stroke-linecap="round" stroke-linejoin="round"/>
<path d="M32.9999 38.6243C32.8349 38.5983 32.6424 38.5983 32.4774 38.6243C28.6824 38.4943 25.6574 35.5563 25.6574 31.9163C25.6574 28.1983 28.8199 25.2083 32.7524 25.2083C36.6849 25.2083 39.8474 28.2243 39.8474 31.9163C39.8199 35.5563 36.7949 38.5203 32.9999 38.6243Z" stroke="#585858" stroke-width="2.4" stroke-linecap="round" stroke-linejoin="round"/>
<path d="M24.9974 46.8142C21.1199 49.2582 21.1199 53.2622 24.9974 55.7062C29.3974 58.4882 36.6024 58.4882 41.0024 55.7062C44.8799 53.2622 44.8799 49.2582 41.0024 46.8142C36.6299 44.0582 29.3974 44.0582 24.9974 46.8142Z" stroke="#585858" stroke-width="2.4" stroke-linecap="round" stroke-linejoin="round"/>
</svg>
